<svg xmlns="http://www.w3.org/2000/svg" width="640" height="360" viewBox="0 0 640 360" role="img" aria-labelledby="t"><title id="t">About the author and verification mission</title><defs><linearGradient id="bg" x1="0" y1="0" x2="1" y2="1"><stop stop-color="#153555"/><stop offset="1" stop-color="#397a8b"/></linearGradient><linearGradient id="glass" x1="0" y1="0" x2="1" y2="1"><stop stop-color="#fff" stop-opacity=".27"/><stop offset="1" stop-color="#fff" stop-opacity=".06"/></linearGradient><filter id="shadow" x="-30%" y="-30%" width="160%" height="160%"><feDropShadow dx="0" dy="12" stdDeviation="16" flood-color="#001021" flood-opacity=".25"/></filter></defs><rect width="640" height="360" rx="0" fill="url(#bg)"/><circle cx="572" cy="58" r="166" fill="#fff" opacity=".055"/><circle cx="46" cy="337" r="130" fill="#fff" opacity=".065"/><g stroke="#fff" stroke-opacity=".13" fill="none"><path d="M-20 275 Q165 140 355 285T670 224"/><path d="M-10 304 Q165 170 355 315T670 255"/></g><g filter="url(#shadow)"><rect x="102" y="67" width="265" height="224" rx="23" fill="#f8fcff"/><rect x="120" y="87" width="229" height="177" rx="13" fill="#ecf3f8"/><circle cx="235" cy="145" r="38" fill="#a2c7d8"/><path d="M168 228c7-40 31-56 67-56s60 16 67 56" fill="#437f9d"/><rect x="162" y="246" width="144" height="7" rx="3.5" fill="#8bb2c7"/></g><g filter="url(#shadow)"><circle cx="428" cy="164" r="90" fill="#edc676"/><circle cx="428" cy="164" r="73" fill="#1b4964"/><path d="M428 112l47 21v35c0 31-19 54-47 69-28-15-47-38-47-69v-35z" fill="#f0c66d"/><path d="M405 165l17 17 32-36" fill="none" stroke="#18344e" stroke-width="11" stroke-linecap="round" stroke-linejoin="round"/></g><g fill="#fff" opacity=".9"><circle cx="550" cy="251" r="9"/><circle cx="519" cy="274" r="5"/><circle cx="84" cy="73" r="6"/></g></svg>